<?xml version="1.0" encoding="UTF-8"?>
<svg xmlns="http://www.w3.org/2000/svg" viewBox="0 0 463.39 228.72">
  <defs>
    <style>
      .cls-1 {
        fill: #f6f2ed;
      }

      .cls-2 {
        fill: #f8f7f2;
      }

      .cls-3, .cls-4 {
        fill: #fff;
      }

      .cls-5 {
        fill: #fcb943;
      }

      .cls-6 {
        fill: #b6b2b3;
      }

      .cls-7 {
        fill: #a89e9e;
      }

      .cls-4 {
        stroke: #fff;
        stroke-miterlimit: 10;
        stroke-width: 10px;
      }

      .cls-8 {
        fill: #86261a;
        mix-blend-mode: multiply;
      }

      .cls-9 {
        isolation: isolate;
      }
    </style>
  </defs>
  <g class="cls-9">
    <g id="Layer_2" data-name="Layer 2">
      <g id="Layer_1-2" data-name="Layer 1">
        <g>
          <g id="Layer_2-2" data-name="Layer 2">
            <g id="Layer_1-2" data-name="Layer 1-2">
              <path class="cls-4" d="m312.54,69.64c-4.38-4.19-9.23-8.16-14.4-11.79-.68-.63-1.24-1.19-1.74-1.72-2.46-2.61-5.38-5-8.4-6.92,6.42-9.08,10.41-23.47,6.8-33.17-2.3-6.19-7.47-10.06-14.54-10.89-.59-.07-1.16-.11-1.76-.15-.16,0-.33,0-.48-.01h-.16c-.36,0-.73-.01-1.09,0-.26,0-.52.02-.78.03-.3.02-.61.04-.92.06-.28.03-.57.06-.86.09-.26.03-.53.07-.78.1-.32.04-.62.09-.92.16-.21.04-.41.08-.66.14l-.1.02c-.3.06-.61.12-.89.2-.1.02-.2.05-.3.08-5.53,1.42-11.2,4.61-15.96,8.96-3.63,3.32-4.63,7.86-2.66,12.15.89,1.94,2.76,3.16,4,3.97.14.09.28.19.41.27.08.05.16.1.24.16,1.46.84,2.85,1.83,4.14,2.92.6.56.89,1.05.87,1.44-.01.25-.21,1.44-2.6,3.56-3.97-.9-8.1-1.52-12.29-1.83-23.04-1.74-48.58,5.55-68.32,19.5-12.57,8.88-22.68,20.59-27.73,32.14-2.34,5.34-2.17,10.58.45,14.74,1.74,2.75,4.47,4.83,7.82,6.04-2.69,7.34-4.54,15.52-5.61,24.88-1.38,12.07.55,24.05,5.91,36.61,2.69,7.68,6.54,14.87,11.24,21.6,4.44,6.36,11.07,12.23,16.45,18.02,4.99,5.38,10.94,10.39,18.26,12.05,4.98,1.13,10.18.61,15.24-.11,9.4-1.35,18.69-3.4,27.76-6.13,9.23-2.78,16.93-7.48,24.91-12.68,1.03-.68,2.13-1.41,3.4-2.32,8.08-3.9,14.31-10.86,19.8-17.01.61-.68,1.21-1.35,1.8-2.01,3.97-4.4,6.87-8.05,9.4-11.82.53-.79,1.14-1.61,1.78-2.48,1.49-2.01,3.12-4.21,4.25-6.69,6.98-.28,14.16-6.17,16.45-9.37,6.42-8.96,8.06-22.16,4.88-39.23-3.25-17.44-11.16-32.91-22.29-43.55v-.02Z"/>
            </g>
          </g>
          <g>
            <path class="cls-8" d="m307.59,71.27c-4.03-4.03-8.49-7.85-13.25-11.35-.63-.62-1.14-1.14-1.6-1.65-2.26-2.51-4.95-4.82-7.73-6.65,5.91-8.73,9.58-22.59,6.26-31.91-2.12-5.95-6.87-9.68-13.38-10.48-.54-.07-1.07-.11-1.62-.14-.15,0-.3,0-.44-.01h-.15c-.33,0-.67-.01-1,0-.24,0-.48.02-.72.03-.28.02-.56.04-.85.06-.26.03-.52.06-.79.09-.24.03-.49.07-.72.1-.29.04-.57.09-.85.15-.19.04-.38.08-.61.13l-.09.02c-.28.06-.56.12-.82.19-.09.02-.18.05-.28.08-5.09,1.37-10.31,4.44-14.69,8.62-3.34,3.19-4.26,7.56-2.45,11.69.82,1.87,2.54,3.04,3.68,3.82.13.09.26.18.38.26.07.05.15.1.22.15,1.34.82,2.62,1.76,3.81,2.81.55.54.82,1.01.8,1.38-.01.24-.19,1.38-2.39,3.42-3.65-.87-7.45-1.46-11.31-1.76-21.2-1.67-44.71,5.35-62.87,18.77-11.57,8.55-20.87,19.82-25.52,30.92-2.15,5.14-2,10.17.41,14.18,1.6,2.64,4.11,4.65,7.2,5.82-2.48,7.06-4.18,14.94-5.16,23.94-1.27,11.62.51,23.14,5.44,35.23,2.48,7.39,6.02,14.31,10.34,20.79,4.09,6.13,10.19,11.77,15.14,17.34,4.59,5.17,10.07,10,16.8,11.6,4.58,1.09,9.37.59,14.02-.11,8.65-1.3,17.2-3.27,25.55-5.9,8.49-2.67,15.58-7.19,22.92-12.2.95-.65,1.96-1.36,3.13-2.23,7.44-3.75,13.17-10.45,18.22-16.37.56-.65,1.11-1.3,1.66-1.94,3.65-4.23,6.32-7.74,8.65-11.38.49-.76,1.05-1.55,1.64-2.38,1.37-1.94,2.87-4.05,3.91-6.44,6.42-.27,13.03-5.93,15.14-9.02,5.91-8.62,7.42-21.32,4.49-37.75-2.99-16.78-10.27-31.66-20.51-41.91Z"/>
            <path class="cls-2" d="m219.23,58.17c-.75,2.51-2.59,3.38-4.73,4.03-12.1,3.69-23.36,9.03-31.6,20.29-2.16,2.96-4.6,3.32-7.14.81-2.53-2.5-1.24-4.95.61-7.09,10.23-11.82,22.65-19.43,36.91-23.16,5.16-1.35,7.47.85,5.95,5.12Z"/>
            <path class="cls-1" d="m234.42,58.41c-2.59-1.14-6.15-1.28-4.64-5.17,1.87-4.82,5.81-4.01,9.32-2.98,2.24.66,5.68.86,4.28,4.88-1.87,5.33-5.89,3.54-8.96,3.27Z"/>
          </g>
          <g>
            <g>
              <path class="cls-6" d="m177.53,203.35c-1.22,0-2.45-.1-3.66-.29-6.72-.94-9.57-5.28-10.68-7.84-2.06-4.66-2.83-9.35-3.39-13.39,0-.04-.01-.08-.02-.12-1.24-10.02-1.29-20.68-.16-33.54.92-10.3,2.09-18.93,4.82-27.64.02-.05.03-.1.05-.15.2-.61.43-1.22.67-1.84.22-.58.43-1.13.57-1.6.02-.08.05-.16.08-.24.99-2.98,3.79-8.15,11.41-9.44,1.35-.24,2.7-.36,4.03-.36,5.74,0,11.13,2.21,16.02,6.58.09.08.17.16.26.24,3.62-1.93,8.28-3.67,13.87-3.69.15,0,.3,0,.45,0,9.74,0,17.32,5.53,20.27,14.8.02.08.05.16.07.24,1.96,6.86,1.44,13.81-1.61,21.23-2.15,5.36-5.41,10.18-9.89,14.63,1.18,1.13,2.43,2.14,3.76,2.94.13.08.25.15.38.24.32.22.71.47.96.62,3.21,1.14,7.05,3.78,8.67,9.86.05.17.09.34.12.51.69,3.45.45,6.86-.72,10.13-.01.03-.02.07-.04.1-2.57,6.91-8.97,11.38-16.31,11.38-1.59,0-3.2-.21-4.78-.62-4.34-1.03-8.22-3.16-12.19-6.71-.1-.08-.2-.17-.29-.26-1.78,4.2-4.9,7.66-9.33,10.33-4.18,2.56-8.8,3.91-13.37,3.91Z"/>
              <path class="cls-6" d="m237.61,195.8c-8.92,0-16.17-7.08-16.17-15.78s7.25-15.91,16.17-15.91,16.3,7.14,16.3,15.91-7.31,15.78-16.3,15.78Z"/>
              <path class="cls-6" d="m283.7,196.28c-3.82,0-7.34-1.38-10.18-4-4.14-3.75-5.87-8.21-7.17-12.09-.02-.06-.04-.12-.06-.18-2.23-7.21-3.26-15-3.26-24.55,0-.04,0-.08,0-.13.17-11.61,1.64-20.43,4.75-28.61.03-.07.05-.14.08-.21,1.32-3.21,2.72-5.77,4.41-8.07.05-.07.11-.14.16-.21,4.23-5.4,9.24-6.54,12.7-6.54,1.6,0,3.24.25,4.89.73,6.31,1.69,10.74,6,12.19,11.64.79-.99,1.6-1.96,2.42-2.9.02-.03.05-.05.07-.08,2.75-3.08,5.92-6.21,10.4-8.29,2.21-1.08,4.72-1.62,7.47-1.62,6.35,0,14.52,3.18,17.45,10.17.08.2.16.39.22.6.89,2.68.68,4.86.45,6.28-.07.41-.16.81-.29,1.2-2.82,8.76-3.96,19.31-3.42,31.37.32,5.23.92,10.75,3.07,15.75,1.24,2.69,1.26,5.71.05,8.41-1.82,4.4-4.86,7.38-9.04,8.88-3.11,1.15-6.86,1.79-10.57,1.79-1.46,0-2.87-.1-4.19-.3-3.34-.39-7.96-2-11.53-7.32-1.67-2.47-2.75-5.01-3.52-7.53-.55,1.36-1.09,2.7-1.6,4.03-.02.05-.04.1-.06.15-1.05,2.56-3.83,9.36-12.14,11.2-.03,0-.06.01-.09.02-1.25.26-2.49.4-3.67.4Z"/>
              <path class="cls-6" d="m373.2,198.85c-5.46,0-10.83-1.07-15.51-3.09-.04-.02-.08-.03-.12-.05-7.33-3.3-13.2-9.92-16.95-19.15-2.86-7.02-4.48-15.56-4.56-24.04-.15-10.59.91-19.34,3.45-28.32.79-2.93,2.49-6.43,3.83-8.61.1-.16.21-.33.32-.48,2.25-3.15,5.12-4.93,8.55-5.31,1.51-.16,2.88-.24,4.19-.24,6.2,0,11.46,1.89,15.62,5.63.11.1.22.21.33.32.42.42.8.84,1.15,1.26,2.39-2.33,5.3-4.08,8.87-5.34.05-.02.09-.03.14-.05,3.39-1.13,6.52-1.68,9.57-1.68.75,0,1.51.03,2.26.1,2.85.26,6.84,1.54,9.61,6.15.08.13.15.26.23.4,4.07,7.69,6.35,16.03,6.99,25.49,2.21,26.29-5.25,45.17-20.99,53.18-5.04,2.52-10.9,3.84-16.98,3.84Zm1.19-45.04c.21,1.95.41,3.58.75,4.98.03-.39.05-.8.05-1.22,0-.1,0-.2,0-.31.16-4.48-.11-8.97-.81-13.44-.27,3.03-.36,5.99-.11,8.83.04.38.08.76.13,1.16Z"/>
              <path class="cls-6" d="m440.07,196.07c-.32,0-.63,0-.95-.02-.03,0-.05,0-.08,0-8.18-.33-15.51-4.18-21.78-11.44-6.07-6.96-8.46-15.18-9.87-21.56-.02-.07-.03-.15-.05-.22-.73-3.77-1.17-7.6-1.32-11.39-.29-4.43-.25-8.85.11-13.38-.08-.05-.16-.1-.23-.14-.15-.09-.29-.19-.43-.29-2.96-2.12-4.78-5.29-4.99-8.7-.21-3.37,1.18-6.69,3.8-9.09.02-.02.04-.03.05-.05,1.87-1.68,3.87-2.86,5.98-3.51,1.71-6.29,4.15-12.65,7.43-19.36,3.66-7.7,11.31-12.48,20-12.48,1.38,0,2.76.12,4.09.37.13.02.26.05.39.08,6.73,1.57,11.55,4.89,14.74,10.13.02.03.04.07.06.1,3.07,5.22,3.01,10.77-.16,15.63-1.25,2.03-2.35,4.27-3.38,6.91.1.06.2.12.29.19,1.48.99,5.98,3.99,5.98,10.29,0,.31-.02.62-.05.93-.54,4.88-3.36,7.45-5.63,8.75-.31.18-.64.34-.97.48-1.54.63-3.04,1.05-4.46,1.34-.37,5.09-.25,9.7.37,14.06.09,0,.18,0,.27,0,2.44,0,4.22.95,4.89,1.31.68.34,2.64,1.32,4.18,3.43,7.38,9.55,6.59,22.94-1.88,31.25-4.19,4.17-9.86,6.38-16.39,6.38Z"/>
            </g>
            <g>
              <path class="cls-6" d="m105.49,212.71c-.21,0-.42,0-.64-.01-9.69-.35-15.14-4.06-20.33-8.72-1.88-.2-4.91-.55-8.4-2.06-3.86-1.67-7.9-4.01-11.46-6.07l-1.7-.98c-2.12-1.22-3.09-2.07-4.34-3.41-.19-.2-.41-.44-.72-.75-.4-.4-.77-.8-1.11-1.2-4.23-.06-7.63-.49-10.92-1.4-2.1-.58-4.04-1.42-5.75-2.51-5.36-3.39-6.22-7.8-6.26-10.13-.04-2.34.69-6.8,6.01-10.4.94-.64,1.89-1.14,2.81-1.54-.17-.17-.34-.34-.5-.52-3.78-4.09-6.35-8.6-8.08-14.19-2.42-7.79-.83-16.89,4.04-23.2,3.37-4.37,8.48-5.05,11.23-5.41l.16-.02c1.67-.22,3.35-.34,4.99-.34,2.26,0,4.51.22,6.7.64,3.36.49,6.91,1.62,10.27,3.26,2.78,1.36,5.29,2.98,7.45,4.8,2.78-1.38,5.74-2.14,8.45-2.14,4.5,0,8.25,2.01,10.27,5.51,1.1,1.91,1.56,3.98,1.43,6.06,1.33,1.01,2.41,2.3,3.15,3.84,1.83,3.79,1.23,8.33-1.61,12.14-1.78,2.38-4.32,4.41-7.37,5.89-1.71.83-3.48,1.42-5.23,1.76-.17.43-.32.9-.48,1.4-.31,1.01-.4,1.86-.41,2.39,1.05.83,2.46,1.57,4.07,2.16.71.26,3.89.83,8.65.83,3.06,0,4.88-.25,5.48-.39,3.33-.82,6.27-2.42,8.51-4.63,4.52-4.46,5.83-9.01,4.53-15.71-.15-.75-.91-1.87-1.79-3.17-.43-.64-.92-1.36-1.4-2.14-.26-.42-.7-1.12-.91-1.37-.75-.59-1.39-1.17-1.95-1.68-.41-.38-.88-.8-1.14-.99-.18-.09-.64-.28-.98-.42-.98-.4-2.21-.89-3.52-1.7-7.09-4.37-12.12-11.84-13.8-20.49-1.68-8.68.21-17.52,5.18-24.25,3.1-4.2,7.02-5.08,9.76-5.08,1.03,0,2.1.12,3.26.38,3.8.83,7.27,2.18,10.38,4.05.7-.15,1.41-.23,2.13-.23,2.4,0,4.3.82,5.44,1.31l.3.13c1.34.55,3.09,1.35,4.81,2.61,4.37,3.21,7.86,6.68,10.49,10.44,3.05.17,5.67,1.97,7,4.54.26.26.56.56.86.92,1.41,1.67,2.46,3.35,3.22,4.63,2,3.37,3.64,6.98,5.08,10.17l.31.69c2.47,5.44,3.93,10.82,4.34,16.01.33,4.13.14,8.03-.56,11.6-1.07,5.46-3.89,10.88-5.92,14.49-4.02,7.14-8.83,14.64-16.78,21.07-6.81,5.51-14.59,9.39-24.42,12.18,0,2.69-.89,4.71-1.65,5.93-2.12,3.44-5.98,5.42-10.6,5.42h0Z"/>
              <path class="cls-6" d="m159.31,142.69c-.36-4.5-1.71-9.02-3.61-13.2-1.5-3.3-3.07-6.84-4.96-10.04-.73-1.23-1.49-2.4-2.41-3.49-.51-.61-1.91-1.6-1.91-2.48,0,4.61.17,8.59-1.94,12.84.59-11.37-4.86-18.89-13.05-24.9-.92-.67-1.98-1.17-3.04-1.61-.94-.39-2.06-.97-2.93-.76-1.24.31-.05,2.07-1.1,2.98-3.55-3.77-7.83-5.97-12.81-7.05-1.97-.43-3.24-.15-4.45,1.48-7.47,10.11-4.46,25.95,6.26,32.56,1.5.92,3.3,1.29,4.76,2.28,1.31.89,2.42,2.12,3.69,3.11,1.18.92,2,2.22,2.79,3.49,1.68,2.7,3.69,4.95,4.31,8.15,1.79,9.21-.19,16.71-6.88,23.31-3.43,3.39-7.75,5.67-12.42,6.81-4.26,1.05-14.91.8-19.03-.71-2.31-.84-4.59-2.02-6.52-3.56-.69-.55-1.52-1.18-1.98-1.95-1.62-2.69-1.21-6.56-.32-9.44.38-1.24.83-2.46,1.39-3.64.35-.74.75-1.46,1.32-2.04.45-.46,1-.81,1.53-1.17.08-.05.16-.11.23-.17,1.59.13,3.61-.28,5.62-1.25,3.73-1.8,6-4.84,5.06-6.78-.94-1.94-4.72-2.06-8.46-.25-2.16,1.04-3.82,2.49-4.66,3.91-1.57,1.2-3.75-1.03-2.2-2.39.97-.85,2.1-1.53,3.28-2.14,1.04-.27,2.13-.72,3.21-1.35,3.59-2.07,5.62-5.27,4.55-7.13-1.08-1.87-4.86-1.7-8.45.37-1.29.74-2.37,1.63-3.19,2.55-.78.48-1.18.31-1.63-.08-1.72-2.74-5.04-5.58-9.3-7.66-2.75-1.34-5.51-2.18-7.99-2.52-2.94-.59-5.98-.69-9.16-.26-2.09.28-4.55.57-5.83,2.23-2.98,3.85-4.34,10.13-2.66,15.55,1.32,4.24,3.23,7.73,6.22,10.97,1.27,1.37,4.42,2.77,6,3.78,1.42.9,1.52,3.21,1.51,5.12,0,.59-.06,1.5-.4,2.02-.82,1.24-2.78,1.19-4.09,1.36-2.27.78-4.72,1.07-6.77,2.47-3.07,2.08-3.11,4.46.03,6.45,1.05.67,2.27,1.17,3.47,1.5,4.82,1.32,9.67,1.16,14.61.98-.11.18-.46.62-.52.94-.18.91,1.05,2.23,1.65,2.82,1.55,1.54,1.42,1.74,3.32,2.83,3.8,2.18,8.32,4.9,12.32,6.63,4.61,2,7.91.97,9.42,2.37,5.28,4.9,8.93,7.46,16.27,7.73,4.02.15,5.13-2.3,3.29-5.95-.84-1.67-2.86-1.89-3.19-3.97,1.12-.22,8.09-.54,9.16-.83,8.17-2.21,15.7-5.45,22.44-10.9,6.52-5.27,10.67-11.42,14.73-18.65,2.01-3.56,4.2-7.94,4.99-11.98.56-2.87.68-6.07.43-9.31Z"/>
              <circle class="cls-6" cx="60.06" cy="136.89" r="2.27"/>
            </g>
            <g id="vHPzLs.tif">
              <g>
                <path class="cls-6" d="m24.3,134.27c-3.36-.04-6.52-.95-9.39-2.7-3.07-1.88-5.54-4.42-7.55-7.77-.97-1.62-1.79-3.39-2.42-5.24-.63-1.85-1.04-3.56-1.25-5.2-.98-1-1.79-2.19-2.39-3.54-2.73-6.15-1.04-13.27,4.22-17.72,2.27-1.92,4.99-3.36,8.32-4.38.94-.29,1.9-.54,2.88-.74.4-1.27.93-2.58,1.62-3.89.09-.17.18-.34.28-.5,0,0-.04.07-.07.13,1.55-3.04,4.54-4.99,8-5.23.33-.02.65-.03.96-.03,2.89,0,5.66.93,8,2.68.66.5,1.28,1.09,1.83,1.78,1.76,2.21,2.38,4.9,1.9,7.44.93.47,1.82,1,2.66,1.59,4.66,3.25,6.22,7.29,6.72,10.1.59,3.38.11,6.68-1.41,9.53-.56,1.04-1.24,1.98-2.04,2.79-.09.58-.19,1.15-.31,1.73-.46,2.21-1.16,4.34-2.1,6.32-.69,1.46-1.45,2.78-2.32,4.03-1.37,1.95-3.01,3.65-4.86,5.04-1.55,1.17-3.27,2.09-5.08,2.74-2,.71-4.02,1.07-6.01,1.07h-.17Z"/>
                <path class="cls-6" d="m25.53,94.6c1.26.17,2.49.3,3.7.52,2.55.46,4.96,1.26,7.05,2.71,1.71,1.2,2.9,2.7,3.25,4.65.25,1.41.14,2.8-.55,4.12-.49.92-1.26,1.56-2.43,1.73-.2.03-.27.11-.27.29,0,.33,0,.67,0,1.01-.04,1.26-.2,2.5-.46,3.74-.32,1.53-.8,3.02-1.47,4.45-.45.96-.97,1.88-1.59,2.76-.83,1.19-1.83,2.25-3.02,3.15-.86.65-1.8,1.17-2.86,1.54-1.06.38-2.14.6-3.27.58-1.86-.02-3.55-.53-5.09-1.47-2.07-1.26-3.56-2.97-4.73-4.92-.69-1.15-1.23-2.36-1.66-3.6-.44-1.3-.78-2.62-.92-3.97-.11-1.08-.15-2.17-.21-3.25,0-.18-.04-.28-.27-.31-1.28-.18-2.07-.91-2.53-1.93-1.15-2.58-.64-5.67,1.96-7.87,1.54-1.3,3.37-2.15,5.35-2.76,2.34-.72,4.77-1.05,7.24-1.14.23,0,.27-.08.29-.27.25-2.53.7-5.01,1.94-7.33.09-.17.2-.34.29-.51.21-.42.6-.61,1.08-.65,1.26-.09,2.37.27,3.34.99.11.08.2.18.28.28.32.4.29.74-.08,1.1-1.22,1.22-2.39,2.47-3.23,3.93-.4.69-.69,1.42-1.03,2.14-.05.1-.06.21-.09.28Z"/>
              </g>
            </g>
            <path class="cls-7" d="m191.91,127c2.1-1.71,3.94-3.28,6.17-4.73,3.94-2.63,8.14-4.6,13.13-4.6,6.3-.13,10.77,3.15,12.61,8.93,1.58,5.51.79,10.64-1.31,15.76-2.63,6.57-7.22,11.69-12.87,16.02-.92.66-.92,1.18-.26,1.97,3.02,3.81,6.3,7.48,10.5,9.98.79.53,1.58,1.05,2.49,1.44,2.23.66,3.15,2.23,3.68,4.2.39,1.97.26,3.81-.39,5.65-1.71,4.6-6.3,6.83-11.16,5.51-3.41-.79-6.17-2.63-8.67-4.86-4.99-4.33-8.93-9.32-11.69-15.1-.26-.66-.66-.92-1.44-.79-1.05.26-2.1.39-3.28.39-.53,0-.79.13-.79.79.66,4.73,1.44,9.45,4.07,13.66.39.66.26,1.31.13,1.97-.92,3.68-3.28,6.3-6.57,8.27-3.41,2.1-7.35,3.15-11.42,2.49-1.97-.26-3.41-1.05-4.2-2.89-1.58-3.55-2.23-7.35-2.76-11.16-1.31-10.64-1.05-21.27-.13-31.78.79-8.8,1.84-17.46,4.46-25.87.39-1.18.92-2.36,1.31-3.68.79-2.36,2.49-3.41,4.86-3.81,5.12-.92,9.32.92,13,4.2,1.31,1.31,1.84,3.02,1.31,4.86l-.79,3.15Zm-3.15,29.94c.26-.13.53-.26.79-.53,4.73-2.89,8.4-6.7,10.9-11.56.79-1.58,1.31-3.15,1.44-4.99.26-3.41-2.23-5.51-5.65-4.99-1.84.26-3.55,1.05-5.25,1.84-.92.53-1.31,1.18-1.44,2.1l-.92,8.4c-.39,3.15-.53,6.43-.39,9.85.26-.13.39-.13.53-.13Z"/>
            <path class="cls-7" d="m236.14,171.84c4.33,0,7.88,3.41,7.88,7.48s-3.55,7.35-7.88,7.35-7.75-3.28-7.75-7.35,3.41-7.48,7.75-7.48Z"/>
            <path class="cls-7" d="m308.28,149.17c-3.28,4.86-5.91,9.98-8.27,15.1-2.63,5.65-5.12,11.42-7.35,17.2-1.18,2.89-2.63,5.38-6.17,6.17-2.49.53-4.6.13-6.43-1.58-2.63-2.36-3.81-5.38-4.86-8.54-2.23-7.22-2.89-14.57-2.89-22.06.13-8.8,1.05-17.46,4.2-25.74.92-2.23,1.97-4.33,3.41-6.3,2.36-3.02,5.25-3.94,8.67-2.89,4.07,1.05,6.43,3.81,6.57,7.35.13,8.54-.39,16.94-.79,25.47,0,.66,0,1.44-.13,2.36.66-.53.66-1.05.92-1.44,4.33-9.85,9.45-19.3,16.68-27.57,2.23-2.49,4.6-4.86,7.75-6.3,4.2-2.1,11.82.13,13.52,4.2.26.79.26,1.44.13,2.23-3.55,11.03-4.33,22.98-3.81,34.4.39,6.43,1.18,12.74,3.81,18.78.26.53.26,1.05,0,1.58-.79,1.97-1.97,3.55-4.2,4.33-3.15,1.18-7.48,1.58-10.77,1.05-2.63-.26-4.33-1.71-5.65-3.68-2.23-3.28-3.02-7.09-3.68-10.77-1.31-7.35-1.44-15.36-.66-22.85v-.53Z"/>
            <path class="cls-7" d="m386.37,188.2c-7.62,3.81-17.73,3.81-25.34.53-11.69-5.25-16.41-21.93-16.54-35.58-.13-9.19.66-17.2,3.15-26,.53-1.97,1.84-4.73,2.89-6.43.66-.92,1.44-1.71,2.63-1.84,4.86-.53,9.45-.13,13.26,3.28,1.58,1.58,2.36,3.28,1.97,5.51-1.44,8.67-3.28,17.73-2.49,26.52.53,4.6.79,10.64,5.38,15.36,3.28,2.63,8.53,1.18,10.37-2.49,1.44-2.76,1.97-5.78,1.97-8.8.39-10.77-1.44-21.27-5.25-31.38-.53-1.44.13-2.36.92-3.28,1.71-1.71,3.68-2.76,5.91-3.55,2.76-.92,5.51-1.44,8.4-1.18,1.44.13,2.36.79,3.15,2.1,3.68,6.96,5.51,14.31,6.04,22.19,1.44,17.07-1.18,37.29-16.41,45.04Z"/>
            <path class="cls-7" d="m449.82,184.37c-3.02,3.02-6.96,4.07-11.16,3.94-6.43-.26-11.55-3.68-15.76-8.53-4.46-5.12-6.57-11.29-8.01-17.86-.66-3.41-1.05-6.83-1.18-10.24-.39-5.91-.13-11.69.66-17.46.26-1.05,0-1.58-1.18-1.58-1.31.13-2.49-.53-3.55-1.18-1.84-1.31-1.97-3.28-.39-4.73,1.31-1.18,2.76-1.97,4.46-1.97,2.1-.13,2.89-1.31,3.41-3.28,1.71-7.09,4.33-13.79,7.48-20.22,3.15-6.7,9.98-8.4,14.97-7.48,3.94.92,7.22,2.63,9.45,6.3,1.31,2.23,1.58,4.46,0,6.83-3.02,4.86-4.99,10.24-6.57,15.76-.26.79,0,1.05.79,1.18,1.71.39,3.55.79,5.12,1.71,1.18.79,2.23,1.58,2.23,3.28-.13,1.18-.53,1.84-1.44,2.36-2.23.92-4.46,1.18-6.7,1.31q-2.1.26-2.49,2.36c-1.05,8.8-1.05,17.6,1.05,26.39.39,1.58.79,3.28,1.58,4.86.92,1.58,2.49,2.1,3.94,1.05.79-.53,1.05-1.44.92-2.49-.13-.66,0-1.31.53-1.71.66-.39,1.18,0,1.71.26s.92.53,1.18.92c4.86,6.17,4.46,14.84-1.05,20.22Z"/>
          </g>
          <g>
            <g>
              <path class="cls-3" d="m176.53,197.38c-1.19,0-2.39-.09-3.57-.28-6.56-.92-9.34-5.16-10.43-7.65-2.01-4.55-2.76-9.13-3.3-13.07,0-.04-.01-.08-.01-.12-1.21-9.78-1.26-20.18-.16-32.74.9-10.05,2.04-18.48,4.7-26.98.02-.05.03-.1.05-.15.2-.59.42-1.19.65-1.79.22-.57.42-1.1.56-1.56.02-.08.05-.16.07-.23.97-2.9,3.7-7.96,11.14-9.22,1.31-.23,2.64-.35,3.93-.35,5.6,0,10.86,2.16,15.63,6.42.08.08.17.15.25.23,3.53-1.88,8.09-3.59,13.54-3.6.15,0,.29,0,.44,0,9.51,0,16.9,5.4,19.78,14.45.02.08.05.16.07.23,1.91,6.7,1.4,13.48-1.57,20.72-2.1,5.23-5.28,9.94-9.65,14.28,1.15,1.11,2.37,2.09,3.67,2.86.12.07.25.15.37.23.32.21.69.46.94.6,3.13,1.11,6.88,3.69,8.46,9.63.04.17.08.33.12.5.68,3.37.44,6.7-.7,9.89-.01.03-.02.06-.04.1-2.5,6.75-8.76,11.1-15.92,11.1-1.55,0-3.12-.2-4.67-.61-4.23-1-8.02-3.09-11.9-6.55-.09-.08-.19-.17-.28-.25-1.73,4.1-4.79,7.48-9.1,10.08-4.08,2.5-8.59,3.82-13.05,3.82Z"/>
              <path class="cls-3" d="m235.17,190.01c-8.7,0-15.78-6.91-15.78-15.4s7.08-15.53,15.78-15.53,15.91,6.96,15.91,15.53-7.14,15.4-15.91,15.4Z"/>
              <path class="cls-3" d="m280.15,190.48c-3.73,0-7.16-1.35-9.93-3.9-4.05-3.66-5.73-8.01-7-11.8-.02-.06-.04-.12-.06-.17-2.17-7.03-3.19-14.65-3.19-23.96,0-.04,0-.08,0-.12.17-11.33,1.6-19.94,4.64-27.92.03-.07.05-.14.08-.21,1.29-3.13,2.66-5.64,4.3-7.88.05-.07.1-.14.16-.21,4.13-5.27,9.02-6.38,12.4-6.38,1.56,0,3.17.24,4.77.72,6.16,1.65,10.48,5.85,11.9,11.36.77-.97,1.56-1.91,2.36-2.83.02-.03.04-.05.07-.08,2.69-3,5.77-6.06,10.15-8.09,2.16-1.05,4.61-1.58,7.29-1.58,6.2,0,14.17,3.11,17.03,9.93.08.19.15.39.22.58.87,2.62.67,4.75.44,6.12-.07.4-.16.79-.28,1.17-2.75,8.55-3.87,18.85-3.33,30.62.31,5.1.9,10.49,3,15.38,1.21,2.62,1.23,5.58.05,8.21-1.78,4.29-4.75,7.21-8.82,8.67-3.03,1.13-6.69,1.75-10.31,1.75-1.43,0-2.8-.1-4.09-.29-3.26-.38-7.77-1.95-11.25-7.15-1.63-2.41-2.68-4.89-3.43-7.35-.54,1.33-1.06,2.64-1.56,3.93-.02.05-.04.1-.06.15-1.02,2.5-3.74,9.13-11.85,10.94-.03,0-.06.01-.09.02-1.22.26-2.43.39-3.59.39Z"/>
              <path class="cls-3" d="m367.51,192.99c-5.33,0-10.57-1.04-15.14-3.01-.04-.02-.08-.03-.12-.05-7.16-3.22-12.88-9.68-16.55-18.69-2.79-6.86-4.37-15.19-4.45-23.46-.15-10.34.89-18.88,3.37-27.64.77-2.86,2.43-6.27,3.74-8.4.1-.16.2-.32.31-.47,2.19-3.07,5-4.82,8.35-5.19,1.48-.16,2.81-.24,4.09-.24,6.06,0,11.19,1.85,15.25,5.49.11.1.22.2.33.31.41.41.78.82,1.12,1.23,2.33-2.28,5.17-3.98,8.66-5.22.04-.02.09-.03.14-.05,3.31-1.1,6.37-1.64,9.34-1.64.74,0,1.48.03,2.21.1,2.79.25,6.68,1.5,9.38,6.01.08.13.15.26.22.39,3.97,7.51,6.2,15.65,6.82,24.88,2.15,25.66-5.12,44.09-20.49,51.9-4.92,2.46-10.64,3.75-16.57,3.75Zm1.16-43.96c.2,1.9.4,3.5.73,4.86.03-.38.04-.78.04-1.19,0-.1,0-.2,0-.3.16-4.37-.11-8.75-.79-13.11-.27,2.95-.35,5.85-.11,8.62.04.37.08.75.12,1.13Z"/>
              <path class="cls-3" d="m432.77,190.28c-.31,0-.62,0-.93-.01-.03,0-.05,0-.08,0-7.98-.33-15.13-4.08-21.26-11.17-5.92-6.79-8.26-14.81-9.63-21.04-.02-.07-.03-.14-.04-.21-.71-3.68-1.14-7.42-1.29-11.12-.28-4.32-.25-8.64.11-13.06-.08-.05-.16-.1-.23-.14-.14-.09-.28-.18-.42-.28-2.89-2.07-4.67-5.16-4.87-8.49-.2-3.29,1.15-6.53,3.71-8.87.02-.02.03-.03.05-.05,1.82-1.64,3.77-2.79,5.84-3.43,1.67-6.14,4.05-12.35,7.25-18.89,3.57-7.52,11.04-12.18,19.52-12.18,1.35,0,2.69.12,3.99.36.13.02.25.05.38.08,6.57,1.53,11.28,4.77,14.39,9.89.02.03.04.06.06.1,3,5.1,2.94,10.51-.16,15.26-1.22,1.98-2.3,4.17-3.3,6.75.1.06.19.12.29.18,1.44.96,5.84,3.89,5.84,10.04,0,.3-.02.6-.05.91-.53,4.76-3.28,7.27-5.5,8.54-.31.18-.62.33-.95.46-1.5.62-2.96,1.03-4.36,1.31-.36,4.97-.24,9.47.37,13.72.09,0,.17,0,.26,0,2.38,0,4.12.93,4.78,1.28.66.33,2.58,1.29,4.08,3.34,7.21,9.33,6.43,22.39-1.84,30.5-4.09,4.07-9.63,6.23-16,6.23Z"/>
            </g>
            <g>
              <path class="cls-3" d="m106.21,206.52c-.2,0-.41,0-.62-.01-9.46-.34-14.77-3.96-19.84-8.51-1.83-.19-4.79-.54-8.2-2.02-3.77-1.63-7.71-3.91-11.19-5.93l-1.66-.96c-2.07-1.19-3.02-2.02-4.24-3.33-.18-.19-.4-.43-.71-.73-.39-.39-.75-.78-1.08-1.17-4.13-.05-7.45-.48-10.66-1.36-2.05-.56-3.94-1.39-5.61-2.45-5.23-3.31-6.07-7.62-6.11-9.89-.04-2.28.68-6.64,5.86-10.15.92-.62,1.84-1.11,2.74-1.51-.17-.16-.33-.33-.49-.5-3.69-3.99-6.2-8.39-7.89-13.85-2.36-7.6-.81-16.49,3.94-22.64,3.29-4.26,8.28-4.93,10.96-5.28l.15-.02c1.63-.22,3.27-.33,4.87-.33,2.2,0,4.4.21,6.54.62,3.28.48,6.74,1.58,10.03,3.18,2.71,1.32,5.16,2.91,7.27,4.68,2.71-1.35,5.6-2.08,8.25-2.08,4.4,0,8.05,1.96,10.02,5.38,1.08,1.87,1.52,3.89,1.39,5.92,1.3.98,2.35,2.25,3.07,3.75,1.79,3.7,1.2,8.13-1.57,11.85-1.73,2.32-4.22,4.31-7.19,5.74-1.67.81-3.4,1.39-5.1,1.72-.16.42-.32.87-.47,1.37-.3.99-.39,1.82-.4,2.34,1.03.81,2.4,1.54,3.97,2.11.7.25,3.8.81,8.44.81,2.99,0,4.77-.24,5.35-.38,3.25-.8,6.12-2.36,8.31-4.52,4.41-4.35,5.69-8.8,4.42-15.33-.14-.73-.88-1.83-1.74-3.09-.42-.62-.9-1.32-1.37-2.08-.26-.41-.68-1.09-.89-1.34-.73-.58-1.35-1.14-1.9-1.64-.4-.37-.86-.78-1.11-.96-.18-.09-.62-.27-.95-.41-.96-.39-2.16-.87-3.44-1.66-6.92-4.26-11.83-11.55-13.47-20-1.64-8.47.2-17.1,5.05-23.66,3.03-4.1,6.85-4.96,9.53-4.96,1.01,0,2.05.12,3.18.37,3.71.81,7.1,2.13,10.13,3.96.68-.15,1.38-.22,2.08-.22,2.34,0,4.2.8,5.31,1.28l.29.13c1.3.54,3.02,1.32,4.69,2.54,4.27,3.13,7.67,6.52,10.23,10.19,2.98.17,5.53,1.92,6.83,4.43.26.25.55.55.84.89,1.38,1.63,2.41,3.27,3.14,4.52,1.95,3.29,3.55,6.81,4.96,9.92l.3.67c2.41,5.31,3.83,10.56,4.23,15.63.32,4.03.14,7.84-.54,11.32-1.04,5.33-3.8,10.62-5.78,14.14-3.92,6.97-8.62,14.29-16.38,20.56-6.65,5.38-14.24,9.17-23.83,11.88,0,2.63-.87,4.6-1.61,5.79-2.07,3.36-5.84,5.29-10.34,5.29h0Z"/>
              <path class="cls-5" d="m158.74,138.18c-.35-4.39-1.67-8.8-3.52-12.88-1.46-3.22-2.99-6.67-4.85-9.8-.71-1.2-1.46-2.34-2.35-3.41-.5-.59-1.86-1.56-1.86-2.42,0,4.5.17,8.39-1.89,12.54.57-11.1-4.75-18.44-12.74-24.31-.89-.66-1.93-1.15-2.96-1.57-.92-.38-2.01-.95-2.86-.74-1.21.3-.05,2.02-1.07,2.91-3.46-3.67-7.65-5.82-12.5-6.88-1.93-.42-3.16-.15-4.34,1.45-7.29,9.87-4.35,25.33,6.11,31.78,1.46.9,3.22,1.26,4.64,2.22,1.28.86,2.36,2.07,3.6,3.03,1.15.9,1.95,2.16,2.72,3.4,1.64,2.64,3.6,4.83,4.21,7.95,1.75,8.99-.18,16.31-6.71,22.75-3.35,3.31-7.56,5.53-12.12,6.65-4.16,1.02-14.55.78-18.57-.69-2.25-.82-4.48-1.97-6.36-3.47-.67-.54-1.48-1.15-1.93-1.9-1.58-2.63-1.18-6.4-.31-9.21.37-1.21.81-2.41,1.36-3.55.34-.72.73-1.43,1.29-1.99.44-.45.98-.79,1.5-1.14.08-.05.15-.11.23-.16,1.55.12,3.52-.28,5.48-1.22,3.64-1.76,5.85-4.72,4.94-6.62-.92-1.9-4.61-2.01-8.25-.25-2.11,1.02-3.73,2.44-4.55,3.82-1.53,1.17-3.66-1.01-2.15-2.33.95-.83,2.05-1.49,3.2-2.09,1.01-.27,2.08-.7,3.13-1.31,3.5-2.02,5.49-5.14,4.44-6.96-1.05-1.82-4.75-1.66-8.25.36-1.26.73-2.31,1.59-3.11,2.49-.76.47-1.15.3-1.59-.07-1.68-2.67-4.92-5.44-9.08-7.47-2.69-1.31-5.38-2.13-7.8-2.46-2.87-.58-5.84-.67-8.94-.26-2.04.27-4.44.55-5.69,2.18-2.9,3.76-4.24,9.89-2.6,15.18,1.29,4.14,3.15,7.54,6.07,10.71,1.24,1.34,4.31,2.71,5.86,3.69,1.39.88,1.48,3.14,1.47,5,0,.58-.06,1.47-.39,1.97-.8,1.21-2.71,1.16-3.99,1.33-2.22.77-4.6,1.04-6.61,2.41-3,2.03-3.04,4.36.03,6.3,1.03.65,2.21,1.14,3.39,1.46,4.71,1.29,9.44,1.13,14.26.96-.11.18-.45.6-.51.92-.17.89,1.03,2.17,1.61,2.75,1.51,1.5,1.39,1.7,3.24,2.76,3.71,2.13,8.12,4.78,12.03,6.47,4.5,1.95,7.72.95,9.19,2.31,5.15,4.79,8.72,7.28,15.88,7.54,3.92.14,5.01-2.25,3.21-5.81-.82-1.63-2.79-1.85-3.12-3.87,1.09-.21,7.9-.53,8.94-.81,7.97-2.16,15.33-5.32,21.9-10.64,6.36-5.14,10.41-11.14,14.38-18.2,1.96-3.48,4.1-7.75,4.87-11.69.55-2.8.67-5.93.42-9.09Z"/>
              <circle class="cls-5" cx="61.88" cy="132.51" r="2.22"/>
            </g>
            <g id="vHPzLs.tif-2" data-name="vHPzLs.tif">
              <g>
                <path class="cls-3" d="m26.97,129.96c-3.28-.03-6.36-.92-9.17-2.64-3-1.84-5.41-4.32-7.37-7.58-.95-1.58-1.74-3.3-2.36-5.12-.61-1.81-1.01-3.47-1.22-5.08-.96-.97-1.75-2.13-2.34-3.46-2.67-6-1.01-12.95,4.12-17.3,2.22-1.88,4.87-3.27,8.12-4.27.92-.28,1.85-.52,2.81-.72.39-1.24.9-2.52,1.59-3.8.09-.17.18-.33.27-.49,0,0-.04.07-.06.13,1.52-2.97,4.43-4.87,7.81-5.11.33-.02.63-.03.94-.03,2.82,0,5.52.9,7.81,2.61.65.48,1.25,1.07,1.78,1.73,1.71,2.15,2.32,4.78,1.86,7.26.91.46,1.77.98,2.59,1.55,4.55,3.18,6.07,7.11,6.56,9.86.58,3.3.1,6.52-1.38,9.3-.54,1.02-1.21,1.93-1.99,2.72-.08.56-.19,1.13-.3,1.69-.45,2.16-1.14,4.24-2.05,6.17-.67,1.43-1.41,2.71-2.27,3.93-1.34,1.91-2.94,3.56-4.74,4.92-1.52,1.14-3.19,2.04-4.96,2.67-1.95.7-3.93,1.05-5.87,1.05h-.17Z"/>
                <path class="cls-5" d="m28.17,91.24c1.23.17,2.43.29,3.61.5,2.49.45,4.85,1.23,6.88,2.64,1.67,1.17,2.83,2.64,3.17,4.54.24,1.38.14,2.74-.54,4.02-.48.9-1.23,1.53-2.38,1.69-.2.03-.26.11-.26.28,0,.33,0,.65,0,.98-.04,1.23-.2,2.44-.45,3.65-.31,1.49-.78,2.95-1.44,4.35-.44.93-.95,1.83-1.55,2.7-.81,1.16-1.78,2.19-2.95,3.07-.84.63-1.76,1.14-2.79,1.51-1.03.37-2.09.58-3.19.57-1.81-.02-3.47-.51-4.96-1.43-2.02-1.23-3.47-2.9-4.62-4.8-.67-1.12-1.2-2.3-1.62-3.52-.43-1.27-.77-2.55-.9-3.87-.11-1.05-.15-2.11-.21-3.17,0-.17-.04-.28-.26-.31-1.25-.18-2.02-.89-2.47-1.89-1.12-2.51-.63-5.53,1.92-7.68,1.5-1.27,3.29-2.09,5.22-2.69,2.29-.7,4.65-1.03,7.06-1.11.23,0,.27-.08.28-.26.24-2.47.69-4.89,1.89-7.15.09-.17.19-.33.28-.5.21-.41.59-.6,1.05-.63,1.23-.09,2.31.26,3.26.97.1.08.19.18.27.28.31.39.28.72-.08,1.08-1.19,1.19-2.33,2.41-3.15,3.84-.39.67-.68,1.39-1.01,2.09-.04.1-.06.2-.08.28Z"/>
              </g>
            </g>
            <path class="cls-5" d="m190.57,122.86c2.05-1.67,3.84-3.2,6.02-4.61,3.84-2.56,7.95-4.49,12.82-4.49,6.15-.13,10.51,3.08,12.3,8.71,1.54,5.38.77,10.38-1.28,15.38-2.56,6.41-7.05,11.41-12.56,15.63-.9.64-.9,1.15-.26,1.92,2.95,3.72,6.15,7.3,10.25,9.74.77.51,1.54,1.03,2.44,1.41,2.18.64,3.08,2.18,3.59,4.1.39,1.92.26,3.72-.38,5.51-1.67,4.49-6.15,6.66-10.89,5.38-3.33-.77-6.02-2.56-8.46-4.74-4.87-4.23-8.71-9.1-11.41-14.74-.26-.64-.64-.9-1.41-.77-1.03.26-2.05.38-3.2.38-.51,0-.77.13-.77.77.64,4.61,1.41,9.23,3.97,13.33.38.64.26,1.28.13,1.92-.9,3.59-3.2,6.15-6.41,8.07-3.33,2.05-7.18,3.08-11.15,2.44-1.92-.26-3.33-1.03-4.1-2.82-1.54-3.46-2.18-7.18-2.69-10.89-1.28-10.38-1.02-20.76-.13-31.01.77-8.59,1.79-17.04,4.36-25.25.38-1.15.9-2.31,1.28-3.59.77-2.31,2.44-3.33,4.74-3.72,5-.9,9.1.9,12.69,4.1,1.28,1.28,1.79,2.95,1.28,4.74l-.77,3.08Zm-3.08,29.22c.26-.13.51-.26.77-.51,4.61-2.82,8.2-6.54,10.64-11.28.77-1.54,1.28-3.08,1.41-4.87.26-3.33-2.18-5.38-5.51-4.87-1.79.26-3.46,1.02-5.13,1.79-.9.51-1.28,1.15-1.41,2.05l-.9,8.2c-.39,3.08-.51,6.28-.39,9.61.26-.13.39-.13.51-.13Z"/>
            <path class="cls-5" d="m233.73,166.63c4.23,0,7.69,3.33,7.69,7.3s-3.46,7.18-7.69,7.18-7.56-3.2-7.56-7.18,3.33-7.3,7.56-7.3Z"/>
            <path class="cls-5" d="m304.14,144.5c-3.2,4.74-5.77,9.74-8.07,14.74-2.56,5.51-5,11.15-7.18,16.79-1.15,2.82-2.56,5.25-6.02,6.02-2.43.51-4.49.13-6.28-1.54-2.56-2.31-3.72-5.25-4.74-8.33-2.18-7.05-2.82-14.22-2.82-21.53.13-8.59,1.03-17.04,4.1-25.12.9-2.18,1.92-4.23,3.33-6.15,2.31-2.95,5.13-3.84,8.46-2.82,3.97,1.02,6.28,3.72,6.41,7.18.13,8.33-.38,16.53-.77,24.86,0,.64,0,1.41-.13,2.31.64-.51.64-1.03.9-1.41,4.23-9.61,9.23-18.84,16.28-26.91,2.18-2.43,4.49-4.74,7.56-6.15,4.1-2.05,11.53.13,13.2,4.1.26.77.26,1.41.13,2.18-3.46,10.76-4.23,22.43-3.72,33.58.38,6.28,1.15,12.43,3.72,18.33.26.51.26,1.02,0,1.54-.77,1.92-1.92,3.46-4.1,4.23-3.08,1.15-7.31,1.54-10.51,1.03-2.56-.26-4.23-1.67-5.51-3.59-2.18-3.2-2.95-6.92-3.59-10.51-1.28-7.18-1.41-14.99-.64-22.3v-.51Z"/>
            <path class="cls-5" d="m380.36,182.6c-7.43,3.72-17.3,3.72-24.73.51-11.41-5.13-16.02-21.4-16.15-34.73-.13-8.97.64-16.79,3.08-25.38.51-1.92,1.79-4.61,2.82-6.28.64-.9,1.41-1.67,2.56-1.79,4.74-.51,9.23-.13,12.94,3.2,1.54,1.54,2.31,3.2,1.92,5.38-1.41,8.46-3.2,17.3-2.43,25.89.51,4.49.77,10.38,5.25,14.99,3.2,2.56,8.33,1.15,10.12-2.44,1.41-2.69,1.92-5.64,1.92-8.59.38-10.51-1.41-20.76-5.13-30.63-.51-1.41.13-2.31.9-3.2,1.67-1.67,3.59-2.69,5.77-3.46,2.69-.9,5.38-1.41,8.2-1.15,1.41.13,2.31.77,3.08,2.05,3.59,6.79,5.38,13.97,5.9,21.66,1.41,16.66-1.15,36.4-16.02,43.96Z"/>
            <path class="cls-5" d="m442.29,178.86c-2.95,2.95-6.79,3.97-10.89,3.84-6.28-.26-11.28-3.59-15.38-8.33-4.36-5-6.41-11.02-7.82-17.43-.64-3.33-1.02-6.66-1.15-10-.38-5.77-.13-11.41.64-17.04.26-1.03,0-1.54-1.15-1.54-1.28.13-2.44-.51-3.46-1.15-1.79-1.28-1.92-3.2-.38-4.61,1.28-1.15,2.69-1.92,4.36-1.92,2.05-.13,2.82-1.28,3.33-3.2,1.67-6.92,4.23-13.46,7.3-19.74,3.08-6.54,9.74-8.2,14.61-7.3,3.84.9,7.05,2.56,9.23,6.15,1.28,2.18,1.54,4.36,0,6.66-2.95,4.74-4.87,10-6.41,15.38-.26.77,0,1.03.77,1.15,1.67.38,3.46.77,5,1.67,1.15.77,2.18,1.54,2.18,3.2-.13,1.15-.51,1.79-1.41,2.31-2.18.9-4.36,1.15-6.54,1.28q-2.05.26-2.44,2.31c-1.02,8.59-1.02,17.17,1.03,25.76.38,1.54.77,3.2,1.54,4.74.9,1.54,2.44,2.05,3.84,1.03.77-.51,1.03-1.41.9-2.44-.13-.64,0-1.28.51-1.67.64-.38,1.15,0,1.67.26s.9.51,1.15.9c4.74,6.02,4.36,14.48-1.02,19.74Z"/>
          </g>
        </g>
      </g>
    </g>
  </g>
</svg>